M48
;DRILL file {Pcbnew (2013-07-07 BZR 4022)-stable} date 2015/05/31 23:09:08
;FORMAT={-:-/ absolute / metric / decimal}
FMAT,2
METRIC,TZ
T1C0.500
T2C0.800
T3C0.813
T4C1.000
T5C1.001
T6C1.016
T7C1.200
T8C1.500
T9C2.300
T10C2.600
T11C3.000
T12C5.000
%
G90
G05
M71
T1
X137.16Y-40.64
X138.43Y-40.64
X139.7Y-40.64
X140.97Y-40.64
X142.24Y-40.64
X143.51Y-40.64
X144.78Y-40.64
X146.05Y-40.64
X147.32Y-40.64
T2
X99.765Y-65.24
X99.765Y-66.84
X100.965Y-64.44
X100.965Y-66.04
X100.965Y-67.64
X104.648Y-74.168
X107.569Y-74.168
X110.744Y-81.915
X112.649Y-81.915
X117.729Y-72.009
X120.269Y-67.056
X120.269Y-72.009
X124.841Y-67.056
X127.Y-86.36
X128.397Y-93.726
X128.397Y-96.393
X129.54Y-43.18
X129.54Y-49.403
X129.54Y-86.36
X132.08Y-43.18
X132.08Y-48.26
X140.843Y-75.819
X143.129Y-51.943
X143.51Y-73.152
X145.669Y-51.943
X151.13Y-86.36
X151.638Y-83.185
X151.765Y-42.418
X151.765Y-45.085
X153.67Y-86.36
X154.305Y-83.185
X156.591Y-72.136
X159.893Y-75.438
X164.465Y-66.04
X167.005Y-66.04
X175.26Y-86.36
X176.276Y-63.754
X177.8Y-86.36
X179.959Y-67.437
X185.42Y-48.006
X187.325Y-46.101
T3
X101.6Y-76.835
X101.6Y-84.455
X106.68Y-76.835
X106.68Y-84.455
X106.68Y-95.885
X109.22Y-95.885
X112.395Y-55.88
X112.395Y-63.5
X114.3Y-80.645
X114.3Y-83.185
X114.935Y-55.88
X114.935Y-63.5
X117.475Y-55.88
X117.475Y-63.5
X120.015Y-55.88
X120.015Y-63.5
X122.555Y-55.88
X122.555Y-63.5
X123.19Y-68.58
X123.19Y-71.12
X123.19Y-73.66
X123.19Y-76.2
X125.095Y-55.88
X125.095Y-63.5
X127.635Y-55.88
X127.635Y-63.5
X130.175Y-55.88
X130.175Y-63.5
X132.715Y-55.88
X132.715Y-63.5
X132.715Y-80.645
X132.715Y-93.345
X135.255Y-55.88
X135.255Y-63.5
X135.89Y-68.58
X135.89Y-71.12
X135.89Y-73.66
X135.89Y-76.2
X137.795Y-55.88
X137.795Y-63.5
X138.43Y-73.025
X138.43Y-83.185
X140.335Y-55.88
X140.335Y-63.5
X142.875Y-55.88
X142.875Y-63.5
X145.415Y-55.88
X145.415Y-63.5
X156.845Y-80.645
X156.845Y-93.345
X162.56Y-73.025
X162.56Y-83.185
X165.735Y-67.945
X165.735Y-70.485
X165.735Y-73.025
X165.735Y-75.565
X179.07Y-71.12
X179.07Y-78.74
T4
X126.873Y-60.198
X129.286Y-77.724
X129.286Y-80.518
X142.621Y-60.198
X142.748Y-77.851
X146.304Y-74.295
X161.036Y-66.548
X163.455Y-68.995
X176.145Y-53.59
X176.145Y-55.88
X176.145Y-58.17
X177.665Y-49.78
X177.665Y-61.98
X182.245Y-49.78
X182.245Y-61.98
X182.88Y-76.97
X184.535Y-49.78
X184.535Y-61.98
X185.42Y-69.35
X185.42Y-82.05
X186.825Y-49.78
X186.825Y-61.98
X188.345Y-53.59
X188.345Y-55.88
X188.345Y-58.17
T5
X114.554Y-85.58
X117.094Y-85.58
X119.126Y-85.58
X121.666Y-85.58
X138.684Y-85.58
X141.224Y-85.58
X143.256Y-85.58
X145.796Y-85.58
X162.814Y-85.58
X165.354Y-85.58
X167.386Y-85.58
X169.926Y-85.58
T6
X97.155Y-75.42
X97.155Y-77.96
X97.155Y-80.5
X97.155Y-83.04
X97.155Y-85.58
X97.155Y-88.12
X111.125Y-74.295
X113.665Y-74.295
X116.205Y-74.295
X117.475Y-49.53
X118.745Y-74.295
X120.015Y-49.53
X122.555Y-49.53
X125.095Y-49.53
X135.255Y-49.53
X137.795Y-49.53
X140.335Y-49.53
X142.875Y-49.53
X170.18Y-50.165
X170.18Y-60.325
T7
X95.315Y-62.34
X95.315Y-69.74
X100.065Y-62.34
X100.065Y-69.74
T8
X155.575Y-51.435
X160.655Y-51.435
T9
X110.998Y-88.247
X124.714Y-88.247
X135.128Y-88.247
X148.844Y-88.247
X159.258Y-88.247
X172.974Y-88.247
T10
X97.155Y-52.07
X99.441Y-57.15
X103.251Y-52.07
T11
X106.68Y-43.4
X106.68Y-91.66
X177.8Y-43.4
X177.8Y-91.66
T12
X97.74Y-40.53
X97.74Y-94.53
X186.74Y-40.53
X186.74Y-94.53
T0
M30
